<?xml version="1.0" encoding="utf-8"?>
<svg version="1.1" id="Layer_1" x="0px" y="0px" width="100%" viewBox="0 0 1200 1200" enable-background="new 0 0 1200 1200" xmlns="http://www.w3.org/2000/svg">
  <defs/>
  <path fill="#F8FF69" opacity="1.000000" stroke="none" d="&#10;M540.000000,355.000000 &#10;&#9;C580.341980,355.008698 620.683899,355.017395 661.507935,355.537109 &#10;&#9;C661.990051,395.315948 661.990051,434.583771 661.990051,473.851593 &#10;&#9;C662.342407,473.851746 662.694702,473.851898 663.047058,473.852051 &#10;&#9;C663.047058,434.277924 663.047058,394.703796 663.047058,355.129669 &#10;&#9;C674.664368,355.036682 686.281616,354.888763 697.899048,354.861511 &#10;&#9;C725.954895,354.795685 754.010925,354.786285 782.918945,354.759216 &#10;&#9;C784.805420,354.969971 785.839722,355.175598 786.874023,355.381226 &#10;&#9;C786.801086,373.664459 786.685425,391.947632 786.666443,410.230896 &#10;&#9;C786.644714,431.177887 786.708801,452.124939 786.739014,473.939636 &#10;&#9;C786.818115,475.886230 786.893738,476.965179 786.987976,478.024963 &#10;&#9;C787.006592,478.005768 787.044128,477.967590 786.585205,477.847046 &#10;&#9;C747.143799,477.712311 708.160828,477.789490 669.179382,477.573029 &#10;&#9;C664.057373,477.544586 662.759583,479.094971 662.786804,484.083801 &#10;&#9;C662.986145,520.733215 662.892517,557.384155 662.895691,594.034607 &#10;&#9;C662.896301,600.992310 662.905579,600.992188 669.979004,601.000183 &#10;&#9;C708.627014,601.043762 747.275024,601.087524 785.939453,601.591431 &#10;&#9;C785.968262,640.644775 785.953674,679.237976 786.035828,717.831055 &#10;&#9;C786.043945,721.627991 785.672302,724.097656 780.786133,724.075867 &#10;&#9;C741.528748,723.900757 702.270386,723.930054 663.002563,723.438049 &#10;&#9;C662.992798,683.365967 662.992798,643.752686 662.992798,604.139465 &#10;&#9;C662.657715,604.139282 662.322693,604.139099 661.987610,604.138977 &#10;&#9;C661.987610,644.058228 661.987610,683.977539 661.520264,723.921204 &#10;&#9;C620.720459,723.948303 580.387878,723.951111 540.030884,723.489929 &#10;&#9;C540.006409,683.402649 540.006409,643.779358 540.006409,604.156006 &#10;&#9;C539.652466,604.155884 539.298584,604.155701 538.944641,604.155579 &#10;&#9;C538.944641,644.088379 538.944641,684.021118 538.479553,723.965210 &#10;&#9;C499.349457,723.984558 460.684357,723.956055 422.019592,724.055542 &#10;&#9;C418.034912,724.065796 415.903564,723.344543 415.923828,718.620911 &#10;&#9;C416.091766,679.456909 416.055237,640.291992 416.542419,601.084961 &#10;&#9;C455.769318,601.028259 494.534637,600.941406 533.299011,601.096313 &#10;&#9;C537.857483,601.114502 539.199341,599.849426 539.178528,595.255066 &#10;&#9;C539.001343,556.157959 539.064880,517.059753 539.037598,477.976501 &#10;&#9;C539.019043,477.991150 539.039246,477.962585 539.504700,477.990753 &#10;&#9;C579.926636,478.018921 619.883179,478.018921 659.839661,478.018921 &#10;&#9;C659.842712,477.662628 659.845703,477.306335 659.848755,476.950043 &#10;&#9;C658.043396,476.950043 656.237976,476.950104 654.432617,476.950073 &#10;&#9;C618.440552,476.949738 582.448486,476.956848 546.456421,476.941833 &#10;&#9;C540.172485,476.939209 539.976807,476.747955 539.976013,470.474304 &#10;&#9;C539.971069,431.982880 539.989380,393.491425 540.000000,355.000000 &#10;z"/>
  <path fill="#F8FF69" opacity="1.000000" stroke="none" d="&#10;M910.456177,481.006561 &#10;&#9;C910.368225,482.498383 910.203430,483.990173 910.203430,485.481995 &#10;&#9;C910.201538,564.327393 910.213501,643.172852 910.135681,722.703857 &#10;&#9;C910.047363,723.389404 909.884033,723.852600 909.423828,723.887390 &#10;&#9;C870.845581,723.948914 832.727600,723.978760 794.609558,723.999634 &#10;&#9;C787.016357,724.003784 787.015076,723.988037 787.005676,716.225891 &#10;&#9;C786.959106,677.775574 786.913269,639.325256 786.900146,600.416016 &#10;&#9;C786.970093,559.293945 787.007141,518.630737 787.044128,477.967590 &#10;&#9;C787.044128,477.967590 787.006592,478.005768 787.457825,478.001587 &#10;&#9;C826.847595,477.990356 865.786133,477.969025 904.724609,478.019440 &#10;&#9;C906.635376,478.021942 908.545410,478.652313 910.396240,479.324646 &#10;&#9;C910.376526,480.108154 910.416382,480.557373 910.456177,481.006561 &#10;z"/>
  <path fill="#F8FF69" opacity="1.000000" stroke="none" d="&#10;M291.736847,722.957458 &#10;&#9;C291.724121,642.615479 291.711395,562.273438 291.735321,481.053589 &#10;&#9;C293.698425,479.442383 295.622742,478.076080 297.551697,478.069458 &#10;&#9;C334.526672,477.942657 371.502228,477.973358 408.477661,477.977509 &#10;&#9;C415.011444,477.978241 415.020538,477.990692 415.026672,484.449677 &#10;&#9;C415.063568,523.256348 415.095917,562.062988 415.098694,601.346924 &#10;&#9;C415.045227,603.488281 415.003326,605.152405 415.003143,606.816467 &#10;&#9;C414.998962,643.766113 414.980896,680.715698 415.028046,717.665283 &#10;&#9;C415.032654,721.295288 415.005066,724.095398 409.949310,724.071228 &#10;&#9;C370.671906,723.883240 331.393524,723.894226 292.035339,723.615845 &#10;&#9;C291.955200,723.388123 291.736847,722.957458 291.736847,722.957458 &#10;z"/>
  <path fill="#F8FF69" opacity="1.000000" stroke="none" d="&#10;M538.871887,847.252136 &#10;&#9;C499.559052,847.250183 460.246185,847.248291 420.076111,847.244812 &#10;&#9;C418.153595,847.150940 417.088318,847.058594 416.017303,846.500122 &#10;&#9;C416.007812,807.906372 415.998322,769.778687 416.005829,731.651001 &#10;&#9;C416.007141,725.062134 416.068115,725.006165 422.734955,725.003052 &#10;&#9;C449.207886,724.990601 475.680847,724.986389 502.153778,724.999878 &#10;&#9;C555.431763,725.027039 608.709778,725.067688 661.997559,725.562195 &#10;&#9;C661.987488,766.323425 661.967651,806.625183 661.483154,846.955566 &#10;&#9;C638.581360,847.000488 616.144104,846.993896 593.707031,847.040222 &#10;&#9;C575.428589,847.077942 557.150269,847.179077 538.871887,847.252136 &#10;z"/>
  <path fill="#F7FE69" opacity="1.000000" stroke="none" d="&#10;M662.855225,848.156921 &#10;&#9;C662.868347,887.125366 662.818176,926.094055 662.983215,965.061890 &#10;&#9;C663.001587,969.402466 661.820312,970.794739 657.380127,970.776306 &#10;&#9;C619.744507,970.620422 582.107605,970.613342 544.472046,970.781738 &#10;&#9;C539.875916,970.802307 538.982361,969.135315 538.997742,964.952393 &#10;&#9;C539.140076,926.317383 539.089172,887.681763 539.564697,848.550171 &#10;&#9;C553.182617,848.024048 566.330444,847.954468 579.478088,847.972168 &#10;&#9;C607.270447,848.009583 635.062866,848.092651 662.855225,848.156921 &#10;z"/>
  <path fill="#F8FF69" opacity="1.000000" stroke="none" d="&#10;M539.037598,477.976501 &#10;&#9;C533.233826,477.870087 527.411560,477.703430 521.589111,477.698822 &#10;&#9;C488.116119,477.672241 454.643097,477.688171 421.170105,477.675507 &#10;&#9;C418.374054,477.674438 415.146698,478.218048 415.194519,473.382263 &#10;&#9;C415.192688,455.041138 415.310547,437.082336 415.330292,419.123413 &#10;&#9;C415.353333,398.167145 415.290710,377.210815 415.589233,355.689911 &#10;&#9;C417.278046,354.953094 418.642822,354.780884 420.007599,354.608704 &#10;&#9;C434.450989,354.688660 448.894287,354.809784 463.337799,354.839508 &#10;&#9;C488.247467,354.890778 513.157288,354.885223 538.543091,355.419617 &#10;&#9;C539.025818,396.611359 539.032532,437.286957 539.039246,477.962585 &#10;&#9;C539.039246,477.962585 539.019043,477.991150 539.037598,477.976501 &#10;z"/>
  <path fill="#F8FF69" opacity="1.000000" stroke="none" d="&#10;M907.997192,354.395142 &#10;&#9;C895.045349,354.313843 882.093506,354.182220 869.141602,354.161804 &#10;&#9;C842.066162,354.119141 814.990601,354.135162 787.438843,353.627350 &#10;&#9;C786.960999,314.330902 786.953369,275.534149 786.972656,236.737411 &#10;&#9;C786.973816,234.368347 786.177063,231.453720 790.006348,231.089508 &#10;&#9;C811.314636,231.164169 832.622925,231.261093 853.931274,231.306366 &#10;&#9;C870.748169,231.342102 887.567261,231.460052 904.380798,231.219803 &#10;&#9;C909.002930,231.153748 910.285950,232.629517 910.270508,237.184723 &#10;&#9;C910.142090,275.146332 910.247925,313.108765 910.224609,351.874268 &#10;&#9;C909.443237,353.250092 908.720215,353.822601 907.997192,354.395142 &#10;z"/>
  <path fill="#F8FF69" opacity="1.000000" stroke="none" d="&#10;M170.009949,724.091919 &#10;&#9;C186.168594,724.166809 202.327148,724.271729 218.485870,724.309509 &#10;&#9;C242.313156,724.365234 266.140564,724.373169 290.458008,724.871216 &#10;&#9;C290.972137,765.900208 290.996124,806.459412 291.020142,847.018677 &#10;&#9;C256.472290,847.062195 221.924469,847.102539 187.376633,847.152710 &#10;&#9;C182.228165,847.160217 177.079773,847.213745 171.093842,847.225342 &#10;&#9;C169.412216,846.135803 168.568085,845.066956 167.723969,843.998047 &#10;&#9;C167.790710,818.593567 167.876892,793.189148 167.916245,767.784668 &#10;&#9;C167.936829,754.500061 167.875092,741.215393 167.869873,727.140503 &#10;&#9;C168.596115,725.597473 169.303040,724.844727 170.009949,724.091919 &#10;z"/>
  <path fill="#F8FF69" opacity="1.000000" stroke="none" d="&#10;M1030.994751,847.389832 &#10;&#9;C1017.046936,847.309631 1003.099182,847.185120 989.151306,847.158997 &#10;&#9;C963.406311,847.110779 937.661133,847.120361 911.442749,846.592285 &#10;&#9;C911.018677,805.546082 911.067871,765.013428 911.117065,724.480774 &#10;&#9;C945.601562,724.426025 980.085999,724.373657 1014.570435,724.314148 &#10;&#9;C1020.400818,724.304077 1026.231201,724.263367 1032.737793,724.364014 &#10;&#9;C1033.700562,724.994385 1033.987183,725.497498 1034.273804,726.000610 &#10;&#9;C1034.207764,751.738159 1034.122559,777.475769 1034.083618,803.213318 &#10;&#9;C1034.063477,816.498352 1034.125366,829.783569 1034.133179,843.910278 &#10;&#9;C1033.075806,845.631226 1032.035278,846.510498 1030.994751,847.389832 &#10;z"/>
  <path fill="#F8FF69" opacity="1.000000" stroke="none" d="&#10;M910.022705,847.972534 &#10;&#9;C910.071350,887.454102 910.091736,926.935791 910.219543,966.417114 &#10;&#9;C910.230408,969.761108 908.887390,970.715637 905.770020,970.710815 &#10;&#9;C867.452820,970.651672 829.135498,970.674622 790.818176,970.642517 &#10;&#9;C789.699829,970.641602 788.581787,970.268921 786.987427,969.984741 &#10;&#9;C786.987427,929.548767 786.987427,889.264160 787.480225,848.491455 &#10;&#9;C828.656189,847.993042 869.339478,847.982788 910.022705,847.972534 &#10;z"/>
  <path fill="#F8FF69" opacity="1.000000" stroke="none" d="&#10;M411.993744,970.908325 &#10;&#9;C398.508789,970.833374 385.023926,970.712646 371.538910,970.693298 &#10;&#9;C346.891876,970.657959 322.244385,970.612610 297.598114,970.751526 &#10;&#9;C293.519958,970.774475 291.681305,969.986267 291.704742,965.301331 &#10;&#9;C291.898712,926.500000 291.842041,887.697510 292.384735,848.427979 &#10;&#9;C333.589294,847.991455 374.270355,848.022278 414.976807,848.517822 &#10;&#9;C415.010773,887.741516 415.025696,926.500549 415.012177,965.259521 &#10;&#9;C415.011353,967.620544 415.824493,970.539734 411.993744,970.908325 &#10;z"/>
  <path fill="#F8FF69" opacity="1.000000" stroke="none" d="&#10;M415.023193,354.072235 &#10;&#9;C377.648834,354.098602 340.274445,354.123108 302.900085,354.155304 &#10;&#9;C300.243042,354.157593 297.586060,354.216675 294.121582,354.195190 &#10;&#9;C292.724335,353.425964 292.134552,352.710846 291.544800,351.995758 &#10;&#9;C291.632568,345.340546 291.790436,338.685364 291.796112,332.030090 &#10;&#9;C291.823120,300.393402 291.898621,268.756134 291.710449,237.120560 &#10;&#9;C291.682739,232.460724 293.165314,231.214264 297.675415,231.228973 &#10;&#9;C335.471863,231.352371 373.269043,231.260361 411.911560,231.266006 &#10;&#9;C413.514679,233.204773 414.927032,235.108658 414.933197,237.017120 &#10;&#9;C415.059631,276.035187 415.025391,315.053741 415.023193,354.072235 &#10;z"/>
  <path fill="#F8FF69" opacity="1.000000" stroke="none" d="&#10;M785.974365,846.958862 &#10;&#9;C759.730774,847.022278 733.487244,847.092529 707.243652,847.146606 &#10;&#9;C692.791504,847.176392 678.339417,847.179016 663.474060,847.133911 &#10;&#9;C663.060852,847.073975 663.090698,846.862793 663.061279,846.406738 &#10;&#9;C663.025391,805.668152 663.018921,765.385681 663.479736,725.078796 &#10;&#9;C702.551636,725.035950 741.156738,725.110168 779.760193,724.891174 &#10;&#9;C785.069153,724.861023 786.098206,726.878540 786.078674,731.644104 &#10;&#9;C785.921387,770.081848 785.980957,808.520508 785.974365,846.958862 &#10;z"/>
  <path fill="#A29694" opacity="1.000000" stroke="none" d="&#10;M415.046570,354.397522 &#10;&#9;C415.025391,315.053741 415.059631,276.035187 414.933197,237.017120 &#10;&#9;C414.927032,235.108658 413.514679,233.204773 412.375458,231.194153 &#10;&#9;C413.326355,230.127899 414.800873,228.259384 415.954681,228.439972 &#10;&#9;C417.319275,228.653549 418.968231,230.440308 419.477081,231.899719 &#10;&#9;C420.160828,233.860550 419.982086,236.160614 419.983429,238.315201 &#10;&#9;C420.007446,276.785492 420.002686,315.255829 420.005859,354.167419 &#10;&#9;C418.642822,354.780884 417.278046,354.953094 415.518433,355.249054 &#10;&#9;C415.105713,355.156128 415.087830,354.939453 415.046570,354.397522 &#10;z"/>
  <path fill="#A29694" opacity="1.000000" stroke="none" d="&#10;M412.102997,971.253784 &#10;&#9;C415.824493,970.539734 415.011353,967.620544 415.012177,965.259521 &#10;&#9;C415.025696,926.500549 415.010773,887.741516 415.029541,848.349854 &#10;&#9;C415.056793,847.717224 415.096893,847.367676 415.328278,847.266357 &#10;&#9;C415.714142,847.098755 415.868622,847.032471 416.023071,846.966248 &#10;&#9;C417.088318,847.058594 418.153595,847.150940 419.613251,847.316650 &#10;&#9;C420.005096,886.094910 420.007782,924.799866 419.985718,963.504761 &#10;&#9;C419.984497,965.656189 420.077637,967.875977 419.605194,969.944763 &#10;&#9;C418.613037,974.289246 415.596497,974.888977 412.102997,971.253784 &#10;z"/>
  <path fill="#A29694" opacity="1.000000" stroke="none" d="&#10;M789.895569,230.742126 &#10;&#9;C786.177063,231.453720 786.973816,234.368347 786.972656,236.737411 &#10;&#9;C786.953369,275.534149 786.960999,314.330902 786.969238,353.601929 &#10;&#9;C786.960144,354.293304 786.944519,354.510406 786.901428,355.054382 &#10;&#9;C785.839722,355.175598 784.805420,354.969971 783.381836,354.687317 &#10;&#9;C782.995056,315.546509 782.997009,276.482697 783.001892,237.418900 &#10;&#9;C783.002075,235.756836 782.741028,234.023636 783.128418,232.453552 &#10;&#9;C783.485291,231.007019 784.374329,228.802139 785.350403,228.615860 &#10;&#9;C786.667358,228.364517 788.292114,229.725586 789.895569,230.742126 &#10;z"/>
  <path fill="#A29694" opacity="1.000000" stroke="none" d="&#10;M910.455750,478.990326 &#10;&#9;C908.545410,478.652313 906.635376,478.021942 904.724609,478.019440 &#10;&#9;C865.786133,477.969025 826.847595,477.990356 787.439209,478.020752 &#10;&#9;C786.893738,476.965179 786.818115,475.886230 786.812378,474.403809 &#10;&#9;C826.303467,474.000641 865.724609,473.995392 905.145813,474.011078 &#10;&#9;C908.466980,474.012390 912.089294,473.602112 912.639893,478.622253 &#10;&#9;C911.727661,478.996307 911.091736,478.993317 910.455750,478.990326 &#10;z"/>
  <path fill="#D4D37B" opacity="1.000000" stroke="none" d="&#10;M786.198608,847.060425 &#10;&#9;C785.980957,808.520508 785.921387,770.081848 786.078674,731.644104 &#10;&#9;C786.098206,726.878540 785.069153,724.861023 779.760193,724.891174 &#10;&#9;C741.156738,725.110168 702.551636,725.035950 663.472778,724.776917 &#10;&#9;C663.003113,724.298523 663.007751,724.097717 663.012329,723.896851 &#10;&#9;C702.270386,723.930054 741.528748,723.900757 780.786133,724.075867 &#10;&#9;C785.672302,724.097656 786.043945,721.627991 786.035828,717.831055 &#10;&#9;C785.953674,679.237976 785.968262,640.644775 786.173584,601.520508 &#10;&#9;C786.391418,600.989380 786.867188,600.874939 786.867188,600.874939 &#10;&#9;C786.913269,639.325256 786.959106,677.775574 787.005676,716.225891 &#10;&#9;C787.015076,723.988037 787.016357,724.003784 794.609558,723.999634 &#10;&#9;C832.727600,723.978760 870.845581,723.948914 909.435059,724.200439 &#10;&#9;C909.911072,724.687134 909.915710,724.895569 909.459229,725.075806 &#10;&#9;C870.343384,725.031555 831.688416,725.069885 793.034180,724.925293 &#10;&#9;C788.573120,724.908569 786.901489,726.177307 786.921875,730.864685 &#10;&#9;C787.090393,769.518738 787.041992,808.173828 787.014526,846.958801 &#10;&#9;C786.969604,847.089050 786.878479,847.349060 786.878479,847.349060 &#10;&#9;C786.878479,847.349060 786.422913,847.162048 786.198608,847.060425 &#10;z"/>
  <path fill="#E2E474" opacity="1.000000" stroke="none" d="&#10;M539.504700,477.990753 &#10;&#9;C539.032532,437.286957 539.025818,396.611359 539.009888,355.467041 &#10;&#9;C539.167114,354.978302 539.333740,354.958282 539.750183,354.969116 &#10;&#9;C539.989380,393.491425 539.971069,431.982880 539.976013,470.474304 &#10;&#9;C539.976807,476.747955 540.172485,476.939209 546.456421,476.941833 &#10;&#9;C582.448486,476.956848 618.440552,476.949738 654.432617,476.950073 &#10;&#9;C656.237976,476.950104 658.043396,476.950043 659.848755,476.950043 &#10;&#9;C659.845703,477.306335 659.842712,477.662628 659.839661,478.018921 &#10;&#9;C619.883179,478.018921 579.926636,478.018921 539.504700,477.990753 &#10;z"/>
  <path fill="#C3BE84" opacity="1.000000" stroke="none" d="&#10;M291.183258,847.096008 &#10;&#9;C290.996124,806.459412 290.972137,765.900208 290.917053,724.911865 &#10;&#9;C291.058563,724.133728 291.231140,723.784607 291.570251,723.196472 &#10;&#9;C291.736847,722.957458 291.955200,723.388123 292.024231,723.931152 &#10;&#9;C292.088684,724.684204 292.084106,724.894165 292.046265,725.563232 &#10;&#9;C292.033661,766.323364 292.054352,806.624329 291.979889,847.012939 &#10;&#9;C291.884766,847.100586 291.693024,847.274231 291.693024,847.274231 &#10;&#9;C291.693024,847.274231 291.346375,847.173340 291.183258,847.096008 &#10;z"/>
  <path fill="#C3BE84" opacity="1.000000" stroke="none" d="&#10;M909.920288,725.103943 &#10;&#9;C909.915710,724.895569 909.911072,724.687134 909.895264,724.165649 &#10;&#9;C909.884033,723.852600 910.047363,723.389404 910.155029,723.168579 &#10;&#9;C910.470093,723.278137 910.677490,723.608521 911.000977,724.209839 &#10;&#9;C911.067871,765.013428 911.018677,805.546082 910.974487,846.548828 &#10;&#9;C910.979431,847.018982 910.650940,847.171936 910.380981,847.134766 &#10;&#9;C910.110962,847.097595 909.923584,846.923584 909.955688,846.462097 &#10;&#9;C909.965332,805.701721 909.942810,765.402832 909.920288,725.103943 &#10;z"/>
  <path fill="#C3BE84" opacity="1.000000" stroke="none" d="&#10;M662.898010,847.933105 &#10;&#9;C635.062866,848.092651 607.270447,848.009583 579.478088,847.972168 &#10;&#9;C566.330444,847.954468 553.182617,848.024048 539.576538,848.089478 &#10;&#9;C539.118164,848.124939 538.964478,847.696838 538.918213,847.474487 &#10;&#9;C557.150269,847.179077 575.428589,847.077942 593.707031,847.040222 &#10;&#9;C616.144104,846.993896 638.581360,847.000488 661.769653,846.951477 &#10;&#9;C662.710754,846.900085 662.900696,846.881409 663.090698,846.862793 &#10;&#9;C663.090698,846.862793 663.060852,847.073975 663.002930,847.163696 &#10;&#9;C662.945068,847.253418 662.940796,847.709229 662.898010,847.933105 &#10;z"/>
  <path fill="#C3BE84" opacity="1.000000" stroke="none" d="&#10;M910.097412,847.799316 &#10;&#9;C869.339478,847.982788 828.656189,847.993042 787.507935,848.026611 &#10;&#9;C787.042969,848.049866 786.936035,847.704285 786.907227,847.526672 &#10;&#9;C786.878479,847.349060 786.969604,847.089050 787.475403,847.016968 &#10;&#9;C828.628662,846.937744 869.276123,846.930664 909.923584,846.923584 &#10;&#9;C909.923584,846.923584 910.110962,847.097595 910.206909,847.184998 &#10;&#9;C910.302795,847.272400 910.172058,847.626160 910.097412,847.799316 &#10;z"/>
  <path fill="#C3BE84" opacity="1.000000" stroke="none" d="&#10;M415.096893,847.367676 &#10;&#9;C415.096893,847.367676 415.056793,847.717224 415.004089,847.885193 &#10;&#9;C374.270355,848.022278 333.589294,847.991455 292.436920,847.958984 &#10;&#9;C291.965576,847.957336 291.822021,847.617981 291.757507,847.446106 &#10;&#9;C291.693024,847.274231 291.884766,847.100586 292.441223,847.044312 &#10;&#9;C308.491852,847.002869 323.986023,847.049500 339.480103,847.025452 &#10;&#9;C364.634705,846.986450 389.789246,846.901123 414.982544,846.968262 &#10;&#9;C415.021301,847.101257 415.096893,847.367676 415.096893,847.367676 &#10;z"/>
  <path fill="#E2E474" opacity="1.000000" stroke="none" d="&#10;M662.773560,355.104156 &#10;&#9;C663.047058,394.703796 663.047058,434.277924 663.047058,473.852051 &#10;&#9;C662.694702,473.851898 662.342407,473.851746 661.990051,473.851593 &#10;&#9;C661.990051,434.583771 661.990051,395.315948 661.971436,355.588898 &#10;&#9;C662.135254,355.112671 662.317627,355.095642 662.773560,355.104156 &#10;z"/>
  <path fill="#A29694" opacity="1.000000" stroke="none" d="&#10;M167.374176,844.050293 &#10;&#9;C168.568085,845.066956 169.412216,846.135803 170.630859,847.297241 &#10;&#9;C169.709961,848.527588 168.539337,849.922180 167.044144,850.648743 &#10;&#9;C166.588242,850.870239 164.326492,848.971924 164.463089,848.529358 &#10;&#9;C164.953110,846.941467 166.115952,845.561218 167.374176,844.050293 &#10;z"/>
  <path fill="#A29694" opacity="1.000000" stroke="none" d="&#10;M1031.051025,847.731384 &#10;&#9;C1032.035278,846.510498 1033.075806,845.631226 1034.196045,844.375000 &#10;&#9;C1035.454468,845.261292 1036.884399,846.392578 1037.659302,847.867859 &#10;&#9;C1037.893677,848.314087 1036.057861,850.634521 1035.610474,850.510376 &#10;&#9;C1034.007446,850.065430 1032.593018,848.940613 1031.051025,847.731384 &#10;z"/>
  <path fill="#A29694" opacity="1.000000" stroke="none" d="&#10;M908.078857,354.715546 &#10;&#9;C908.720215,353.822601 909.443237,353.250092 910.299011,352.336914 &#10;&#9;C911.066528,353.293701 911.701294,354.591156 912.336060,355.888611 &#10;&#9;C910.944214,355.604401 909.552368,355.320190 908.078857,354.715546 &#10;z"/>
  <path fill="#A29694" opacity="1.000000" stroke="none" d="&#10;M291.229004,352.080566 &#10;&#9;C292.134552,352.710846 292.724335,353.425964 293.658478,354.267517 &#10;&#9;C292.715027,355.047852 291.427185,355.701691 290.139343,356.355591 &#10;&#9;C290.397308,354.958862 290.655243,353.562134 291.229004,352.080566 &#10;z"/>
  <path fill="#A29694" opacity="1.000000" stroke="none" d="&#10;M169.850906,723.784241 &#10;&#9;C169.303040,724.844727 168.596115,725.597473 167.807220,726.675842 &#10;&#9;C167.026291,725.728455 166.327332,724.455444 165.628387,723.182495 &#10;&#9;C166.982880,723.280518 168.337372,723.378540 169.850906,723.784241 &#10;z"/>
  <path fill="#A29694" opacity="1.000000" stroke="none" d="&#10;M1034.576660,725.943237 &#10;&#9;C1033.987183,725.497498 1033.700562,724.994385 1033.201416,724.292236 &#10;&#9;C1033.973877,723.739868 1034.958740,723.386475 1035.943604,723.033081 &#10;&#9;C1035.588989,723.984009 1035.234253,724.934937 1034.576660,725.943237 &#10;z"/>
  <path fill="#A29694" opacity="1.000000" stroke="none" d="&#10;M910.396240,479.324646 &#10;&#9;C911.091736,478.993317 911.727661,478.996307 912.681824,478.999634 &#10;&#9;C912.341919,479.632050 911.683777,480.264069 910.740967,480.951355 &#10;&#9;C910.416382,480.557373 910.376526,480.108154 910.396240,479.324646 &#10;z"/>
  <path fill="#D4D37B" opacity="1.000000" stroke="none" d="&#10;M292.079559,725.104065 &#10;&#9;C292.084106,724.894165 292.088684,724.684204 292.104370,724.158936 &#10;&#9;C331.393524,723.894226 370.671906,723.883240 409.949310,724.071228 &#10;&#9;C415.005066,724.095398 415.032654,721.295288 415.028046,717.665283 &#10;&#9;C414.980896,680.715698 414.998962,643.766113 415.003143,606.816467 &#10;&#9;C415.003326,605.152405 415.045227,603.488281 415.098724,601.346924 &#10;&#9;C415.129791,600.869629 415.608734,600.985352 415.844635,601.056396 &#10;&#9;C416.055237,640.291992 416.091766,679.456909 415.923828,718.620911 &#10;&#9;C415.903564,723.344543 418.034912,724.065796 422.019592,724.055542 &#10;&#9;C460.684357,723.956055 499.349457,723.984558 538.757446,723.969849 &#10;&#9;C539.685425,723.960144 539.870361,723.956970 540.055359,723.953857 &#10;&#9;C580.387878,723.951111 620.720459,723.948303 661.527222,724.222961 &#10;&#9;C661.996887,724.701172 661.992310,724.901978 661.987793,725.102722 &#10;&#9;C608.709778,725.067688 555.431763,725.027039 502.153778,724.999878 &#10;&#9;C475.680847,724.986389 449.207886,724.990601 422.734955,725.003052 &#10;&#9;C416.068115,725.006165 416.007141,725.062134 416.005829,731.651001 &#10;&#9;C415.998322,769.778687 416.007812,807.906372 416.017303,846.500122 &#10;&#9;C415.868622,847.032471 415.714142,847.098755 415.328278,847.266357 &#10;&#9;C415.096893,847.367676 415.021301,847.101257 414.997314,846.513733 &#10;&#9;C414.981598,807.600769 414.949280,769.275146 415.057922,730.950012 &#10;&#9;C415.069427,726.888184 414.200195,724.901306 409.552948,724.922058 &#10;&#9;C370.395660,725.096130 331.237488,725.070007 292.079559,725.104065 &#10;z"/>
  <path fill="#E2E474" opacity="1.000000" stroke="none" d="&#10;M661.997559,725.562195 &#10;&#9;C661.992310,724.901978 661.996887,724.701172 661.994568,724.198608 &#10;&#9;C661.987610,683.977539 661.987610,644.058228 661.987610,604.138977 &#10;&#9;C662.322693,604.139099 662.657715,604.139282 662.992798,604.139465 &#10;&#9;C662.992798,643.752686 662.992798,683.365967 663.002563,723.438049 &#10;&#9;C663.007751,724.097717 663.003113,724.298523 663.005493,724.801270 &#10;&#9;C663.018921,765.385681 663.025391,805.668152 663.061279,846.406738 &#10;&#9;C662.900696,846.881409 662.710754,846.900085 662.234314,846.922852 &#10;&#9;C661.967651,806.625183 661.987488,766.323425 661.997559,725.562195 &#10;z"/>
  <path fill="#E2E474" opacity="1.000000" stroke="none" d="&#10;M540.030884,723.489929 &#10;&#9;C539.870361,723.956970 539.685425,723.960144 539.222534,723.958618 &#10;&#9;C538.944641,684.021118 538.944641,644.088379 538.944641,604.155579 &#10;&#9;C539.298584,604.155701 539.652466,604.155884 540.006409,604.156006 &#10;&#9;C540.006409,643.779358 540.006409,683.402649 540.030884,723.489929 &#10;z"/>
  <path fill="#F8FF69" opacity="1.000000" stroke="none" d="&#10;M909.955688,846.462097 &#10;&#9;C869.276123,846.930664 828.628662,846.937744 787.520264,846.886719 &#10;&#9;C787.041992,808.173828 787.090393,769.518738 786.921875,730.864685 &#10;&#9;C786.901489,726.177307 788.573120,724.908569 793.034180,724.925293 &#10;&#9;C831.688416,725.069885 870.343384,725.031555 909.459229,725.075806 &#10;&#9;C909.942810,765.402832 909.965332,805.701721 909.955688,846.462097 &#10;z"/>
  <path fill="#F8FF69" opacity="1.000000" stroke="none" d="&#10;M292.046265,725.563232 &#10;&#9;C331.237488,725.070007 370.395660,725.096130 409.552948,724.922058 &#10;&#9;C414.200195,724.901306 415.069427,726.888184 415.057922,730.950012 &#10;&#9;C414.949280,769.275146 414.981598,807.600769 414.958557,846.380737 &#10;&#9;C389.789246,846.901123 364.634705,846.986450 339.480103,847.025452 &#10;&#9;C323.986023,847.049500 308.491852,847.002869 292.536377,846.956665 &#10;&#9;C292.054352,806.624329 292.033661,766.323364 292.046265,725.563232 &#10;z"/>
</svg>