<svg xmlns="http://www.w3.org/2000/svg" width="500" height="500" version="1.0" viewBox="0 0 375 375"><defs><clipPath id="a"><path d="M37.5 37.5h300v300h-300zm0 0"/></clipPath><clipPath id="b"><path d="M187.5 37.5c-82.844 0-150 67.156-150 150s67.156 150 150 150 150-67.156 150-150-67.156-150-150-150zm0 0"/></clipPath><clipPath id="c"><path d="M73.402 125H254v41H73.402zm0 0"/></clipPath><clipPath id="d"><path d="M206 225h95.402v29H206zm0 0"/></clipPath></defs><g clip-path="url(#a)"><g clip-path="url(#b)"><path fill="#fff" d="M37.5 37.5h300v300h-300zm0 0"/></g></g><g clip-path="url(#c)"><path d="M163.59 158.375c56.23-23.219 89.922-2.273 89.922-2.273-30.957-41.891-64.196-33.696-102.895-18.215-38.703 15.48-76.949-6.828-76.949-6.828 6.375 12.293 33.691 50.539 89.922 27.316"/></g><path d="M286.297 203.906c-50.996-47.804-99.715-26.406-137.957-.91-38.246 25.496-72.852-2.473-72.852-2.473 9.563 18.47 71.028 60.297 120.657 25.692 49.628-34.602 90.152-22.309 90.152-22.309"/><g clip-path="url(#d)"><path d="M238.941 234.277c-16.386 13.07-32.78 11.516-32.78 11.516 30.964 13.207 50.085 7.742 64.651-2.332 14.57-10.07 30.508-9.184 30.508-9.184-21.855-11.058-45.984-13.07-62.379 0"/></g></svg>